<?xml version="1.0" encoding="UTF-8"?>
<svg version="1.1" xmlns="http://www.w3.org/2000/svg" width="1067" height="1067">
<path d="M0 0 C0.81982864 -0.00705963 1.63965729 -0.01411926 2.48432922 -0.02139282 C36.61921092 -0.24852971 36.61921092 -0.24852971 52.20703125 3.203125 C53.15884277 3.40711914 54.1106543 3.61111328 55.09130859 3.82128906 C68.61753555 6.78210408 81.54787555 10.58604568 94.20703125 16.203125 C95.09745117 16.59628906 95.98787109 16.98945313 96.90527344 17.39453125 C110.03228324 23.26466076 122.35379975 29.92689107 134.30126953 37.93310547 C135.54394225 38.76123556 136.79726261 39.57367035 138.06201172 40.36767578 C139.47665655 41.2627226 140.84773652 42.2260648 142.20703125 43.203125 C142.20703125 43.863125 142.20703125 44.523125 142.20703125 45.203125 C142.77679687 45.46480469 143.3465625 45.72648437 143.93359375 45.99609375 C148.06587571 48.19003727 151.56626219 51.28669743 155.20703125 54.203125 C155.77035156 54.64011719 156.33367187 55.07710938 156.9140625 55.52734375 C160.30803733 58.22282244 163.02798983 61.21199535 165.78515625 64.5234375 C168.35751435 67.56221218 171.23888998 70.28996944 174.1328125 73.01953125 C179.84301235 78.52688209 184.69039404 84.44987679 189.51171875 90.72265625 C191.87805113 93.8012429 194.33791133 96.78919269 196.83203125 99.765625 C212.25968663 118.64277375 224.266747 140.48911955 235.20703125 162.203125 C235.5417041 162.8628833 235.87637695 163.5226416 236.22119141 164.20239258 C247.66523654 186.88761367 257.02248076 210.84775123 264.92578125 234.98828125 C266.84272585 239.79817578 268.8699277 243.31172263 273.20703125 246.203125 C273.20703125 246.863125 273.20703125 247.523125 273.20703125 248.203125 C273.78227539 248.45384766 274.35751953 248.70457031 274.95019531 248.96289062 C277.51144321 250.37041327 279.24760517 251.98482525 281.31640625 254.046875 C282.07050781 254.79839844 282.82460938 255.54992187 283.6015625 256.32421875 C284.37886719 257.10925781 285.15617188 257.89429688 285.95703125 258.703125 C286.74980469 259.48816406 287.54257812 260.27320313 288.359375 261.08203125 C289.10832031 261.83355469 289.85726562 262.58507812 290.62890625 263.359375 C291.3156543 264.04837891 292.00240234 264.73738281 292.70996094 265.44726562 C294.20703125 267.203125 294.20703125 267.203125 294.20703125 269.203125 C295.19703125 269.533125 296.18703125 269.863125 297.20703125 270.203125 C298.99424228 272.20741823 300.64083268 274.20093819 302.26953125 276.328125 C302.75558838 276.95847656 303.24164551 277.58882813 303.74243164 278.23828125 C336.2439571 320.87707419 354.72916403 372.41018002 348.7421875 426.29296875 C346.20982566 443.49125416 337.78197828 461.10988675 324.20703125 472.203125 C320.98126818 474.43321947 317.69823884 476.41802791 314.20703125 478.203125 C313.16546875 478.739375 312.12390625 479.275625 311.05078125 479.828125 C302.26098661 483.48412021 289.40011437 482.95722937 280.5625 479.76171875 C270.35558981 475.30226263 262.72866939 468.17294907 256.20703125 459.203125 C255.54058594 460.06292969 254.87414062 460.92273438 254.1875 461.80859375 C251.2177379 465.62569164 248.22081643 469.42070405 245.20703125 473.203125 C244.7692334 473.75258789 244.33143555 474.30205078 243.88037109 474.86816406 C231.99021577 489.65801887 218.54160191 503.01407031 203.20703125 514.203125 C201.95599609 515.12931641 201.95599609 515.12931641 200.6796875 516.07421875 C188.15678127 525.09654553 174.71119085 532.76865416 161.20703125 540.203125 C162.71330078 540.80447266 162.71330078 540.80447266 164.25 541.41796875 C177.52503178 546.87350596 192.7807831 554.10431826 199.64453125 567.453125 C201.97492102 573.37493797 202.3809253 579.51374369 200.44140625 585.609375 C198.62517447 589.58778746 197.32047728 591.46614464 193.20703125 593.203125 C193.20703125 593.863125 193.20703125 594.523125 193.20703125 595.203125 C172.49990006 611.68762552 136.96235457 608.93400841 112.47167969 606.38305664 C94.56747636 604.20085499 72.97604033 600.02706082 60.20703125 586.203125 C59.58699219 585.62949219 58.96695312 585.05585937 58.328125 584.46484375 C57.77253906 583.94535156 57.21695312 583.42585937 56.64453125 582.890625 C56.08636719 582.37886719 55.52820313 581.86710938 54.953125 581.33984375 C52.43737355 578.26128437 50.87807901 574.79352449 49.20703125 571.203125 C48.54509766 571.23341797 47.88316406 571.26371094 47.20117188 571.29492188 C23.46464798 572.35677601 -0.06378002 572.46189686 -23.79296875 571.203125 C-24.19386719 571.9765625 -24.59476562 572.75 -25.0078125 573.546875 C-33.30059567 588.74090856 -45.76752271 595.96848037 -61.79296875 601.453125 C-64.11369064 602.08476741 -66.44962065 602.66142224 -68.79296875 603.203125 C-69.55883301 603.38359375 -70.32469727 603.5640625 -71.11376953 603.75 C-98.76538211 609.99919055 -138.96040732 612.74544234 -164.2890625 597.72265625 C-169.30517687 594.14234709 -173.37901857 589.9477153 -175.79296875 584.203125 C-177.12579716 574.63481996 -174.92596663 567.75196095 -169.2421875 560.12109375 C-160.90306285 550.74651238 -147.83337822 545.67230859 -136.79296875 540.203125 C-137.40068115 539.8721582 -138.00839355 539.54119141 -138.63452148 539.20019531 C-158.20436969 528.48719185 -175.71719154 516.52667114 -192.79296875 502.203125 C-194.16775391 501.06230469 -194.16775391 501.06230469 -195.5703125 499.8984375 C-199.57123268 496.50925732 -199.57123268 496.50925732 -200.79296875 495.203125 C-200.79296875 494.543125 -200.79296875 493.883125 -200.79296875 493.203125 C-201.41171875 492.955625 -202.03046875 492.708125 -202.66796875 492.453125 C-205.14365562 490.99683861 -205.74421877 489.82499994 -206.79296875 487.203125 C-207.45296875 487.203125 -208.11296875 487.203125 -208.79296875 487.203125 C-210.21003377 485.65423998 -211.55106371 484.03550966 -212.85546875 482.390625 C-213.65339844 481.39160156 -214.45132813 480.39257812 -215.2734375 479.36328125 C-215.89484619 478.58041748 -215.89484619 478.58041748 -216.52880859 477.78173828 C-219.25035792 474.38321801 -222.06138864 471.05645596 -224.84765625 467.7109375 C-226.71812489 465.29961046 -228.28337539 462.8520341 -229.79296875 460.203125 C-233.3064742 461.50442332 -234.90057387 463.55482097 -237.19140625 466.421875 C-246.07006033 476.29667075 -255.96284712 480.57931162 -268.94921875 482.0078125 C-281.2160422 482.6311267 -290.10370461 478.92495851 -299.98046875 471.953125 C-300.57859375 471.375625 -301.17671875 470.798125 -301.79296875 470.203125 C-301.79296875 469.543125 -301.79296875 468.883125 -301.79296875 468.203125 C-302.45296875 468.203125 -303.11296875 468.203125 -303.79296875 468.203125 C-321.67188818 450.36530654 -324.04227233 426.12796317 -324.11239624 402.28521729 C-324.11050682 388.92013944 -323.00750863 376.21976637 -319.79296875 363.203125 C-319.6110498 362.45546875 -319.42913086 361.7078125 -319.24169922 360.9375 C-314.77268039 343.17324999 -307.88481269 326.07805724 -298.79296875 310.203125 C-298.179375 309.07003906 -297.56578125 307.93695312 -296.93359375 306.76953125 C-288.83897671 292.03532131 -278.86092596 278.81174186 -267.79296875 266.203125 C-267.20386719 265.4915625 -266.61476563 264.78 -266.0078125 264.046875 C-261.42443561 258.55132728 -256.17287805 253.82877829 -250.87890625 249.03515625 C-244.51585858 243.32143461 -244.51585858 243.32143461 -240.35546875 235.953125 C-239.73865234 234.38111328 -239.73865234 234.38111328 -239.109375 232.77734375 C-237.10337248 227.33077906 -235.17398046 221.85896671 -233.26171875 216.37890625 C-230.03061876 207.15049762 -226.41579503 198.2041959 -222.24609375 189.359375 C-220.92050806 186.48014588 -219.71703012 183.58404647 -218.54296875 180.640625 C-200.4249939 136.68130782 -171.88467931 96.33070895 -138.48046875 62.765625 C-137.81072021 62.09120361 -137.14097168 61.41678223 -136.45092773 60.72192383 C-125.89792999 50.203125 -125.89792999 50.203125 -122.79296875 50.203125 C-122.79296875 49.543125 -122.79296875 48.883125 -122.79296875 48.203125 C-121.44775391 46.96630859 -121.44775391 46.96630859 -119.58203125 45.6015625 C-118.91429687 45.11171875 -118.2465625 44.621875 -117.55859375 44.1171875 C-116.8521875 43.60929687 -116.14578125 43.10140625 -115.41796875 42.578125 C-114.36996094 41.8046875 -114.36996094 41.8046875 -113.30078125 41.015625 C-108.05607226 37.203125 -108.05607226 37.203125 -105.79296875 37.203125 C-105.79296875 36.543125 -105.79296875 35.883125 -105.79296875 35.203125 C-105.16132813 34.8628125 -104.5296875 34.5225 -103.87890625 34.171875 C-102.98429688 33.6871875 -102.0896875 33.2025 -101.16796875 32.703125 C-100.14960938 32.15140625 -99.13125 31.5996875 -98.08203125 31.03125 C-95.95269384 29.84772279 -93.84146359 28.63075428 -91.75390625 27.375 C-64.56153829 11.09927611 -31.9036912 0.18305482 0 0 Z M-41.79296875 22.203125 C-42.54707031 22.44546875 -43.30117188 22.6878125 -44.078125 22.9375 C-68.3987802 30.80027918 -89.8535042 42.18617806 -109.79296875 58.203125 C-112.28550143 60.08296808 -114.7799294 61.95999328 -117.28125 63.828125 C-117.78011719 64.281875 -118.27898437 64.735625 -118.79296875 65.203125 C-118.79296875 65.863125 -118.79296875 66.523125 -118.79296875 67.203125 C-119.36120361 67.44683838 -119.92943848 67.69055176 -120.51489258 67.94165039 C-123.21378376 69.43614945 -125.05721174 71.20823141 -127.2421875 73.38671875 C-128.08620117 74.2267041 -128.93021484 75.06668945 -129.79980469 75.93212891 C-130.68442383 76.82593262 -131.56904297 77.71973633 -132.48046875 78.640625 C-133.38442383 79.54989746 -134.28837891 80.45916992 -135.21972656 81.39599609 C-140.36527692 86.61521417 -145.354889 91.82512876 -149.8203125 97.64428711 C-151.69862479 100.08074641 -153.62703681 102.46680188 -155.5703125 104.8515625 C-159.67144716 109.97207073 -163.43212336 115.27011369 -167.10546875 120.703125 C-167.75136963 121.65509766 -168.39727051 122.60707031 -169.06274414 123.58789062 C-174.49795028 131.65559604 -179.67388197 139.8559569 -184.62451172 148.22900391 C-185.69211614 150.03273339 -186.77496839 151.82741553 -187.859375 153.62109375 C-201.84338693 177.26678664 -212.28569739 203.20150808 -221.62060547 228.97509766 C-222.41126104 231.15211723 -223.20995197 233.32623309 -224.01611328 235.49755859 C-234.64990228 264.20754226 -242.04102194 293.80235846 -245.79296875 324.203125 C-245.89319336 324.91428467 -245.99341797 325.62544434 -246.09667969 326.3581543 C-247.06184877 333.71284574 -247.03564976 341.10870205 -247.04296875 348.515625 C-247.04397583 349.22421661 -247.04498291 349.93280823 -247.04602051 350.66287231 C-247.03476449 362.40869177 -246.20270962 373.69193827 -243.79296875 385.203125 C-243.65375 385.91355957 -243.51453125 386.62399414 -243.37109375 387.35595703 C-237.31086376 417.98677229 -223.5635599 446.81697793 -202.79296875 470.203125 C-202.055625 471.04875 -201.31828125 471.894375 -200.55859375 472.765625 C-184.93423377 490.43731491 -166.41533339 505.65585254 -145.79296875 517.203125 C-144.66503906 517.87472656 -143.53710938 518.54632812 -142.375 519.23828125 C-109.12900279 538.8407329 -70.79801317 549.13400241 -32.79296875 554.203125 C-31.57601318 554.37086426 -31.57601318 554.37086426 -30.33447266 554.54199219 C9.4246646 559.88591693 52.2220847 558.16761713 91.20703125 548.203125 C92.25568359 547.93564453 93.30433594 547.66816406 94.38476562 547.39257812 C110.00004861 543.44617132 110.00004861 543.44617132 125.20703125 538.203125 C126.60354505 537.6754353 128.00070384 537.14945001 129.3984375 536.625 C176.63882356 518.64092572 218.0290681 489.3835568 245.20703125 446.203125 C245.59213867 445.61289551 245.97724609 445.02266602 246.37402344 444.41455078 C256.38237386 429.01312017 262.79831849 412.07758945 267.14453125 394.265625 C267.33184814 393.49959961 267.51916504 392.73357422 267.7121582 391.94433594 C270.82977152 378.02803303 271.56403574 363.97348722 271.45703125 349.765625 C271.45326477 348.99810913 271.44949829 348.23059326 271.44561768 347.43981934 C271.3813586 336.2401315 271.14505324 325.25325038 269.20703125 314.203125 C269.02398438 313.12804687 268.8409375 312.05296875 268.65234375 310.9453125 C257.84763003 248.65146919 235.30198161 186.6210341 201.20703125 133.203125 C200.36978516 131.84960938 200.36978516 131.84960938 199.515625 130.46875 C192.83240403 119.73838129 185.49427431 109.52051324 177.3828125 99.82421875 C174.4456331 96.28589312 171.64091988 92.64755002 168.8359375 89.00390625 C168.29839844 88.40964844 167.76085937 87.81539063 167.20703125 87.203125 C166.54703125 87.203125 165.88703125 87.203125 165.20703125 87.203125 C164.98917969 86.66042969 164.77132813 86.11773437 164.546875 85.55859375 C162.75358963 82.40596669 160.33603368 80.03618188 157.76953125 77.515625 C157.23457031 76.98598145 156.69960938 76.45633789 156.1484375 75.91064453 C151.94848236 71.80850675 147.55064546 68.03374695 142.94140625 64.39453125 C141.14061518 62.95132583 139.37784609 61.45914752 137.66015625 59.91796875 C123.28544103 47.14275219 105.81188628 37.74806287 88.20703125 30.203125 C87.30339844 29.80996094 86.39976562 29.41679687 85.46875 29.01171875 C46.56869241 12.77683383 -1.46086535 8.87302303 -41.79296875 22.203125 Z M-252.79296875 271.203125 C-254.50398831 273.16558471 -256.09324513 275.13465075 -257.66796875 277.203125 C-258.15265625 277.83250977 -258.63734375 278.46189453 -259.13671875 279.11035156 C-260.16933427 280.45473754 -261.1988646 281.80149784 -262.22558594 283.15039062 C-263.73806251 285.13121664 -265.26758778 287.09768904 -266.80078125 289.0625 C-278.12673925 303.70341763 -287.51689853 319.17270625 -294.79296875 336.203125 C-295.10218262 336.92467773 -295.41139648 337.64623047 -295.72998047 338.38964844 C-307.27139365 365.71981138 -313.96767534 396.71890105 -307.79296875 426.203125 C-307.48359375 427.74226563 -307.48359375 427.74226563 -307.16796875 429.3125 C-304.2807967 442.23915668 -297.93590044 454.53951688 -286.79296875 462.203125 C-279.01093183 466.59983539 -271.77769494 468.22468156 -263.046875 466.0078125 C-259.30520193 464.67196388 -255.82703169 462.78249186 -252.79296875 460.203125 C-252.79296875 459.543125 -252.79296875 458.883125 -252.79296875 458.203125 C-254.2915481 457.0806713 -255.84420775 456.02998128 -257.41796875 455.015625 C-266.88739007 448.52459713 -273.03534719 439.64442707 -275.5234375 428.296875 C-276.04132241 424.273885 -275.94220539 420.24909604 -275.79296875 416.203125 C-275.13296875 415.873125 -274.47296875 415.543125 -273.79296875 415.203125 C-273.53902344 415.88761719 -273.28507812 416.57210937 -273.0234375 417.27734375 C-268.30520977 428.4962408 -261.46519438 441.28850368 -249.79296875 446.203125 C-247.02882901 446.49511159 -244.58477732 446.39904139 -241.79296875 446.203125 C-240.44557827 443.1944633 -240.86283576 442.00478543 -241.98046875 438.83203125 C-242.57649221 437.47296211 -243.18130682 436.11772802 -243.79296875 434.765625 C-263.52714896 388.90576888 -268.03320798 332.46171352 -253.79296875 284.203125 C-253.19309547 281.7070421 -252.60890385 279.20712086 -252.04296875 276.703125 C-251.800625 275.6409375 -251.55828125 274.57875 -251.30859375 273.484375 C-251.1384375 272.7315625 -250.96828125 271.97875 -250.79296875 271.203125 C-251.45296875 271.203125 -252.11296875 271.203125 -252.79296875 271.203125 Z M280.20703125 276.203125 C280.69171875 277.14285156 281.17640625 278.08257812 281.67578125 279.05078125 C295.78283525 307.80460034 300.42091195 340.83691701 300.45703125 372.515625 C300.45936768 373.44711365 300.4617041 374.37860229 300.46411133 375.33831787 C300.47724454 389.19296428 299.88899291 402.5698199 297.20703125 416.203125 C298.52703125 415.873125 299.84703125 415.543125 301.20703125 415.203125 C301.43129514 421.98087804 301.00743067 427.67667709 299.20703125 434.203125 C298.41545226 439.34838847 300.68132289 443.81593677 303.20703125 448.203125 C306.25879349 451.33313756 308.78154584 453.0977563 313.20703125 453.203125 C315.67692048 452.3884225 317.85994206 451.35365891 320.20703125 450.203125 C320.20703125 449.543125 320.20703125 448.883125 320.20703125 448.203125 C321.13 448.0175 322.05296875 447.831875 323.00390625 447.640625 C326.59346961 446.029699 327.37116161 444.7910899 328.76953125 441.18359375 C328.99640625 440.53003906 329.22328125 439.87648438 329.45703125 439.203125 C329.699375 438.58050781 329.94171875 437.95789063 330.19140625 437.31640625 C334.35604849 426.15788112 334.60968878 415.03617226 334.58203125 403.265625 C334.58181976 402.43986969 334.58160828 401.61411438 334.58139038 400.76333618 C334.54990391 388.47003271 333.84899802 377.01666255 330.20703125 365.203125 C329.81646639 363.83108209 329.42715309 362.45868232 329.0390625 361.0859375 C327.87449049 357.08439171 326.56189016 353.1436304 325.20703125 349.203125 C324.88677979 348.2435791 324.88677979 348.2435791 324.56005859 347.26464844 C316.95672038 324.65337678 304.13020795 304.92095775 289.67431641 286.13769531 C288.62513864 284.75438672 287.59566083 283.35604772 286.57958984 281.94824219 C286.0480127 281.21508789 285.51643555 280.48193359 284.96875 279.7265625 C284.48752686 279.05286621 284.00630371 278.37916992 283.51049805 277.68505859 C283.080354 277.19602051 282.65020996 276.70698242 282.20703125 276.203125 C281.54703125 276.203125 280.88703125 276.203125 280.20703125 276.203125 Z M140.20703125 550.203125 C140.20703125 551.523125 140.20703125 552.843125 140.20703125 554.203125 C136.94712696 555.83307714 134.91670283 556.203125 131.20703125 556.203125 C130.54703125 557.523125 129.88703125 558.843125 129.20703125 560.203125 C130.52703125 559.873125 131.84703125 559.543125 133.20703125 559.203125 C133.20703125 560.193125 133.20703125 561.183125 133.20703125 562.203125 C131.58307128 562.70649267 129.95782584 563.20571476 128.33203125 563.703125 C127.42710937 563.9815625 126.5221875 564.26 125.58984375 564.546875 C123.20703125 565.203125 123.20703125 565.203125 121.20703125 565.203125 C122.52703125 563.883125 123.84703125 562.563125 125.20703125 561.203125 C122.73203125 560.708125 122.73203125 560.708125 120.20703125 560.203125 C120.86703125 559.543125 121.52703125 558.883125 122.20703125 558.203125 C119.29220347 557.39345062 117.74589908 556.98466507 114.89453125 558.140625 C114.33765625 558.49125 113.78078125 558.841875 113.20703125 559.203125 C114.52703125 559.533125 115.84703125 559.863125 117.20703125 560.203125 C115.55703125 560.533125 113.90703125 560.863125 112.20703125 561.203125 C111.71203125 560.213125 111.71203125 560.213125 111.20703125 559.203125 C105.26016321 560.43867018 99.3154583 561.68398253 93.37255859 562.93847656 C91.34968889 563.36403611 89.32625008 563.78689956 87.30224609 564.20703125 C84.39657961 564.81065819 81.49308378 565.42388529 78.58984375 566.0390625 C77.68146759 566.22560394 76.77309143 566.41214539 75.83718872 566.6043396 C74.9964682 566.78437531 74.15574768 566.96441101 73.28955078 567.14990234 C72.54786652 567.30534515 71.80618225 567.46078796 71.04202271 567.62094116 C68.98457816 568.11880468 68.98457816 568.11880468 67.20703125 570.203125 C70.17618953 575.5476099 72.43422037 577.20484431 78.20703125 579.203125 C78.20703125 579.863125 78.20703125 580.523125 78.20703125 581.203125 C81.21734869 582.13736145 82.07353393 582.24762411 85.20703125 581.203125 C85.20703125 582.193125 85.20703125 583.183125 85.20703125 584.203125 C98.46331026 588.39026586 98.46331026 588.39026586 112.20703125 590.203125 C112.70203125 589.213125 112.70203125 589.213125 113.20703125 588.203125 C115.1973571 587.26078995 117.22490154 586.39597688 119.26953125 585.578125 C120.37425781 585.13210938 121.47898437 584.68609375 122.6171875 584.2265625 C123.47183594 583.88882813 124.32648438 583.55109375 125.20703125 583.203125 C123.95161568 580.69229386 122.70639637 580.33187054 120.20703125 579.203125 C121.06683594 579.39648438 121.92664063 579.58984375 122.8125 579.7890625 C130.91482281 581.5738708 138.98949278 583.04284133 147.20703125 584.203125 C145.55703125 584.533125 143.90703125 584.863125 142.20703125 585.203125 C142.53703125 585.863125 142.86703125 586.523125 143.20703125 587.203125 C145.51703125 587.203125 147.82703125 587.203125 150.20703125 587.203125 C148.22703125 588.193125 148.22703125 588.193125 146.20703125 589.203125 C146.20703125 589.533125 146.20703125 589.863125 146.20703125 590.203125 C139.93703125 590.533125 133.66703125 590.863125 127.20703125 591.203125 C127.20703125 591.533125 127.20703125 591.863125 127.20703125 592.203125 C131.14451583 592.23211316 135.08197304 592.24991964 139.01953125 592.265625 C140.13908203 592.27400391 141.25863281 592.28238281 142.41210938 592.29101562 C143.48525391 592.29423828 144.55839844 592.29746094 145.6640625 592.30078125 C146.6538208 592.30601807 147.6435791 592.31125488 148.66333008 592.31665039 C151.33095859 592.31382459 151.33095859 592.31382459 154.20703125 591.203125 C156.20664689 591.16391685 158.20752489 591.15869153 160.20703125 591.203125 C160.20703125 590.543125 160.20703125 589.883125 160.20703125 589.203125 C158.72203125 588.708125 158.72203125 588.708125 157.20703125 588.203125 C159.18703125 587.873125 161.16703125 587.543125 163.20703125 587.203125 C161.22703125 586.708125 161.22703125 586.708125 159.20703125 586.203125 C159.20703125 585.543125 159.20703125 584.883125 159.20703125 584.203125 C166.95703125 585.078125 166.95703125 585.078125 169.20703125 586.203125 C171.32386966 585.31148923 171.32386966 585.31148923 173.20703125 584.203125 C171.72203125 583.708125 171.72203125 583.708125 170.20703125 583.203125 C171.40328125 582.77 172.59953125 582.336875 173.83203125 581.890625 C180.47229762 579.89347244 180.47229762 579.89347244 185.08203125 575.37109375 C185.42344696 573.1007673 185.42344696 573.1007673 183.8984375 571.125 C175.12168418 562.1711012 161.56258633 554.83152617 149.20703125 552.203125 C146.48643516 552.54605499 146.48643516 552.54605499 144.20703125 553.203125 C144.53703125 552.543125 144.86703125 551.883125 145.20703125 551.203125 C143.55703125 550.873125 141.90703125 550.543125 140.20703125 550.203125 Z M-124.79296875 553.203125 C-126.29167336 553.68632804 -127.7916641 554.16556181 -129.29296875 554.640625 C-137.47553203 557.37760024 -145.11937338 561.29423717 -152.79296875 565.203125 C-152.79296875 565.863125 -152.79296875 566.523125 -152.79296875 567.203125 C-153.37046875 567.409375 -153.94796875 567.615625 -154.54296875 567.828125 C-158.34796497 570.15340047 -160.30952104 573.44513331 -161.48046875 577.703125 C-160.31076118 581.95660707 -157.45959364 583.93954535 -153.79296875 586.203125 C-135.11545925 594.78695047 -107.81947212 594.77687813 -87.79296875 591.203125 C-86.44038137 590.57644359 -85.10599718 589.90894265 -83.79296875 589.203125 C-82.21893099 588.63501203 -80.63513865 588.09323879 -79.04296875 587.578125 C-78.24375 587.31773437 -77.44453125 587.05734375 -76.62109375 586.7890625 C-76.0178125 586.59570312 -75.41453125 586.40234375 -74.79296875 586.203125 C-74.79296875 586.863125 -74.79296875 587.523125 -74.79296875 588.203125 C-74.13296875 588.203125 -73.47296875 588.203125 -72.79296875 588.203125 C-73.12296875 586.553125 -73.45296875 584.903125 -73.79296875 583.203125 C-72.80296875 583.203125 -71.81296875 583.203125 -70.79296875 583.203125 C-70.79296875 583.863125 -70.79296875 584.523125 -70.79296875 585.203125 C-70.13296875 585.203125 -69.47296875 585.203125 -68.79296875 585.203125 C-68.79296875 584.543125 -68.79296875 583.883125 -68.79296875 583.203125 C-67.14296875 583.533125 -65.49296875 583.863125 -63.79296875 584.203125 C-63.29796875 583.213125 -63.29796875 583.213125 -62.79296875 582.203125 C-60.81296875 582.203125 -58.83296875 582.203125 -56.79296875 582.203125 C-56.46296875 580.883125 -56.13296875 579.563125 -55.79296875 578.203125 C-55.13296875 578.203125 -54.47296875 578.203125 -53.79296875 578.203125 C-54.28796875 575.233125 -54.28796875 575.233125 -54.79296875 572.203125 C-53.80296875 572.203125 -52.81296875 572.203125 -51.79296875 572.203125 C-51.79296875 571.543125 -51.79296875 570.883125 -51.79296875 570.203125 C-52.37046875 570.05875 -52.94796875 569.914375 -53.54296875 569.765625 C-56.66796875 568.984375 -56.66796875 568.984375 -59.79296875 568.203125 C-58.80296875 569.688125 -58.80296875 569.688125 -57.79296875 571.203125 C-59.44296875 570.873125 -61.09296875 570.543125 -62.79296875 570.203125 C-62.79296875 569.543125 -62.79296875 568.883125 -62.79296875 568.203125 C-60.48296875 567.873125 -58.17296875 567.543125 -55.79296875 567.203125 C-59.25702455 565.23316792 -62.69468254 564.4161364 -66.5703125 563.546875 C-67.21867569 563.39907593 -67.86703888 563.25127686 -68.53504944 563.09899902 C-70.59911873 562.62882223 -72.66459715 562.16531347 -74.73046875 561.703125 C-76.79267735 561.24056903 -78.85446401 560.77643027 -80.91517639 560.30725098 C-82.78749293 559.88107177 -84.66116986 559.46088219 -86.53491211 559.04101562 C-89.42868726 558.29680908 -92.03811333 557.33984887 -94.79296875 556.203125 C-97.45458745 555.75763143 -97.45458745 555.75763143 -100.10546875 555.578125 C-100.98847656 555.50335937 -101.87148438 555.42859375 -102.78125 555.3515625 C-103.44511719 555.30257812 -104.10898437 555.25359375 -104.79296875 555.203125 C-104.79296875 554.543125 -104.79296875 553.883125 -104.79296875 553.203125 C-106.77296875 553.203125 -108.75296875 553.203125 -110.79296875 553.203125 C-110.79296875 552.543125 -110.79296875 551.883125 -110.79296875 551.203125 C-115.98224702 549.36176819 -119.90451455 551.38992385 -124.79296875 553.203125 Z " fill="#131313" transform="translate(520.79296875,218.796875)"/>
<path d="M0 0 C1.94893141 0.35942137 3.88433144 0.79208803 5.8125 1.25 C15.13258479 3.34147714 24.54743782 4.65914359 34 6 C34 6.33 34 6.66 34 7 C31.36 7.33 28.72 7.66 26 8 C27.65 8 29.3 8 31 8 C30 10 30 10 27 12 C27 12.33 27 12.66 27 13 C22.50040757 13.19827341 18.00032507 13.38168337 13.5 13.5625 C12.2315625 13.61857422 10.963125 13.67464844 9.65625 13.73242188 C3.29524393 13.98089867 -2.71699379 14.07096697 -9 13 C-7.95837282 10.01316544 -7.29792173 9.1449349 -4.3984375 7.734375 C-3.40070312 7.40953125 -2.40296875 7.0846875 -1.375 6.75 C-0.37210938 6.41484375 0.63078125 6.0796875 1.6640625 5.734375 C2.43492187 5.49203125 3.20578125 5.2496875 4 5 C3.01 4.34 2.02 3.68 1 3 C0.34 2.34 -0.32 1.68 -1 1 C-0.67 0.67 -0.34 0.34 0 0 Z " fill="#575757" transform="translate(641,797)"/>
<path d="M0 0 C8.57142857 0.85714286 8.57142857 0.85714286 12 3 C12 3.66 12 4.32 12 5 C15.465 4.505 15.465 4.505 19 4 C19.93065133 6.60582371 20.14917407 7.64198224 19.0625 10.25 C18.5365625 11.11625 18.5365625 11.11625 18 12 C16.68 11.67 15.36 11.34 14 11 C13.67 12.65 13.34 14.3 13 16 C11.68 16.33 10.36 16.66 9 17 C9 16.34 9 15.68 9 15 C8.34 14.67 7.68 14.34 7 14 C7.66 14 8.32 14 9 14 C8.67 12.02 8.34 10.04 8 8 C8.99 8 9.98 8 11 8 C11 7.34 11 6.68 11 6 C10.01 6.33 9.02 6.66 8 7 C7.01 6.67 6.02 6.34 5 6 C5.33 6.66 5.66 7.32 6 8 C4.35 8 2.7 8 1 8 C0.67 6.68 0.34 5.36 0 4 C0.99 3.34 1.98 2.68 3 2 C2.01 1.34 1.02 0.68 0 0 Z " fill="#565656" transform="translate(458,783)"/>
<path d="M0 0 C1.8141927 0.28094582 3.62635001 0.57506433 5.4375 0.875 C6.95150391 1.11863281 6.95150391 1.11863281 8.49609375 1.3671875 C9.32238281 1.57601562 10.14867187 1.78484375 11 2 C11.33 2.66 11.66 3.32 12 4 C11.01 4 10.02 4 9 4 C9 4.66 9 5.32 9 6 C9.66 6 10.32 6 11 6 C11 6.99 11 7.98 11 9 C13.475 9.495 13.475 9.495 16 10 C15.67 10.66 15.34 11.32 15 12 C12.03 12 9.06 12 6 12 C6 11.34 6 10.68 6 10 C5.01 10.66 4.02 11.32 3 12 C0.51953125 12.1953125 0.51953125 12.1953125 -2.1875 12.125 C-3.08855469 12.10695313 -3.98960937 12.08890625 -4.91796875 12.0703125 C-5.60503906 12.04710937 -6.29210937 12.02390625 -7 12 C-6.67 11.34 -6.34 10.68 -6 10 C-3.67843403 9.59270772 -1.3431213 9.25561323 1 9 C1 8.01 1 7.02 1 6 C1.99 5.34 2.98 4.68 4 4 C1.525 3.01 1.525 3.01 -1 2 C-0.67 1.34 -0.34 0.68 0 0 Z " fill="#050505" transform="translate(641,797)"/>
<path d="M0 0 C2 1 2 1 3.25390625 4.4921875 C3.69788358 5.95077968 4.13373728 7.41186312 4.5625 8.875 C5.00126852 10.33073928 5.44006938 11.78646882 5.87890625 13.2421875 C6.24886719 14.48226563 6.61882813 15.72234375 7 17 C7.33 17.99 7.66 18.98 8 20 C8.03954234 22.33299825 8.04401732 24.66708189 8 27 C7.01 26.67 6.02 26.34 5 26 C4.67 23.36 4.34 20.72 4 18 C3.34 18 2.68 18 2 18 C1.34 12.06 0.68 6.12 0 0 Z " fill="#5D5D5D" transform="translate(769,473)"/>
<path d="M0 0 C0 3 0 3 -1.21484375 4.5 C-6.55394003 9.149009 -11.93193113 11.75093456 -19.0625 12.1875 C-19.701875 12.125625 -20.34125 12.06375 -21 12 C-20.01 11.34 -19.02 10.68 -18 10 C-15.8614515 7.8614515 -15.57344937 6.86724686 -15 4 C-10.558491 3.34199867 -6.48244396 3 -2 3 C-2 2.34 -2 1.68 -2 1 C-1.34 0.67 -0.68 0.34 0 0 Z " fill="#A5A5A5" transform="translate(706,797)"/>
<path d="M0 0 C-1.32 2.31 -2.64 4.62 -4 7 C-4.94875 6.79375 -5.8975 6.5875 -6.875 6.375 C-8.421875 6.189375 -8.421875 6.189375 -10 6 C-10.66 6.66 -11.32 7.32 -12 8 C-12.33 7.34 -12.66 6.68 -13 6 C-13.33 6.33 -13.66 6.66 -14 7 C-15.66617115 7.04063832 -17.33388095 7.042721 -19 7 C-19 6.01 -19 5.02 -19 4 C-17.91912109 3.81824219 -17.91912109 3.81824219 -16.81640625 3.6328125 C-13.11312914 2.80073082 -9.85747216 1.28608155 -6.40234375 -0.2578125 C-3.77248376 -1.07028957 -2.54835718 -0.92988553 0 0 Z " fill="#C7C7C7" transform="translate(663,769)"/>
<path d="M0 0 C1.47436523 0.20786133 1.47436523 0.20786133 2.97851562 0.41992188 C4.00267578 0.57138672 5.02683594 0.72285156 6.08203125 0.87890625 C7.63567383 1.10030273 7.63567383 1.10030273 9.22070312 1.32617188 C11.77960246 1.69172892 14.33740033 2.06370943 16.89453125 2.44140625 C16.89453125 2.77140625 16.89453125 3.10140625 16.89453125 3.44140625 C15.73824219 3.53228516 15.73824219 3.53228516 14.55859375 3.625 C13.55570313 3.70878906 12.5528125 3.79257812 11.51953125 3.87890625 C10.02292969 4.00072266 10.02292969 4.00072266 8.49609375 4.125 C5.91525512 4.29106251 5.91525512 4.29106251 3.89453125 5.44140625 C2.1875039 5.51136639 0.47785122 5.52580779 -1.23046875 5.50390625 C-2.14054688 5.49488281 -3.050625 5.48585938 -3.98828125 5.4765625 C-4.68695312 5.46496094 -5.385625 5.45335937 -6.10546875 5.44140625 C-6.10546875 4.45140625 -6.10546875 3.46140625 -6.10546875 2.44140625 C-6.76546875 2.44140625 -7.42546875 2.44140625 -8.10546875 2.44140625 C-8.10546875 1.78140625 -8.10546875 1.12140625 -8.10546875 0.44140625 C-4.85054451 -0.6435685 -3.3439569 -0.48323077 0 0 Z " fill="#8D8D8D" transform="translate(658.10546875,800.55859375)"/>
<path d="M0 0 C7.26 0 14.52 0 22 0 C22 0.99 22 1.98 22 3 C14.74 3 7.48 3 0 3 C0 2.01 0 1.02 0 0 Z " fill="#060606" transform="translate(521,786)"/>
<path d="M0 0 C2.64 0 5.28 0 8 0 C7.34 1.65 6.68 3.3 6 5 C4.68 4.67 3.36 4.34 2 4 C1.67 5.65 1.34 7.3 1 9 C-0.32 9.33 -1.64 9.66 -3 10 C-3 9.34 -3 8.68 -3 8 C-3.66 7.67 -4.32 7.34 -5 7 C-4.34 7 -3.68 7 -3 7 C-3 5.35 -3 3.7 -3 2 C-2.01 2 -1.02 2 0 2 C0 1.34 0 0.68 0 0 Z " fill="#2C2C2C" transform="translate(470,790)"/>
<path d="M0 0 C0.66 0.33 1.32 0.66 2 1 C1.39671875 1.66386719 0.7934375 2.32773437 0.171875 3.01171875 C-0.62734375 3.89472656 -1.4265625 4.77773438 -2.25 5.6875 C-3.03890625 6.55761719 -3.8278125 7.42773438 -4.640625 8.32421875 C-6.84501956 10.82423576 -8.93173731 13.38721683 -11 16 C-14.06219821 19.06219821 -16.75132102 21.13033437 -21 22 C-16.61557474 16.74825074 -11.99157907 11.86777527 -7.125 7.0625 C-6.43664062 6.37865234 -5.74828125 5.69480469 -5.0390625 4.99023438 C-3.36166489 3.32448536 -1.68196209 1.6611378 0 0 Z " fill="#515151" transform="translate(390,274)"/>
<path d="M0 0 C1.79244141 0.01740234 1.79244141 0.01740234 3.62109375 0.03515625 C5.41740234 0.04869141 5.41740234 0.04869141 7.25 0.0625 C8.17683594 0.07410156 9.10367188 0.08570313 10.05859375 0.09765625 C10.05859375 1.08765625 10.05859375 2.07765625 10.05859375 3.09765625 C8.45709489 3.77070643 6.85228346 4.43587852 5.24609375 5.09765625 C4.35277344 5.46890625 3.45945312 5.84015625 2.5390625 6.22265625 C0.05859375 7.09765625 0.05859375 7.09765625 -2.94140625 7.09765625 C-1.95140625 5.77765625 -0.96140625 4.45765625 0.05859375 3.09765625 C-1.26140625 2.43765625 -2.58140625 1.77765625 -3.94140625 1.09765625 C-2.94140625 0.09765625 -2.94140625 0.09765625 0 0 Z " fill="#6E6E6E" transform="translate(643.94140625,777.90234375)"/>
<path d="M0 0 C1.134375 0.020625 2.26875 0.04125 3.4375 0.0625 C2.4375 3.0625 2.4375 3.0625 0.4375 4.0625 C-1.56210012 4.102492 -3.56297242 4.10596799 -5.5625 4.0625 C-5.5625 4.7225 -5.5625 5.3825 -5.5625 6.0625 C-6.8825 6.0625 -8.2025 6.0625 -9.5625 6.0625 C-9.5625 4.7425 -9.5625 3.4225 -9.5625 2.0625 C-8.3559375 1.8459375 -8.3559375 1.8459375 -7.125 1.625 C-3.54194995 0.83847682 -4.04971121 0.07104757 0 0 Z " fill="#8E8E8E" transform="translate(461.5625,799.9375)"/>
<path d="M0 0 C0.76953125 1.67578125 0.76953125 1.67578125 1 4 C-0.80078125 6.54296875 -0.80078125 6.54296875 -3.3125 9.1875 C-4.54419922 10.50814453 -4.54419922 10.50814453 -5.80078125 11.85546875 C-8 14 -8 14 -10 15 C-8.79618552 12.50638429 -7.54571278 10.31856917 -6 8 C-6.99 7.67 -7.98 7.34 -9 7 C-8.01 7 -7.02 7 -6 7 C-6 6.34 -6 5.68 -6 5 C-3 3 -3 3 0 3 C0 2.01 0 1.02 0 0 Z " fill="#969696" transform="translate(847,662)"/>
<path d="M0 0 C-3.31087949 3.76428019 -7.24690847 4.80132193 -12 6 C-15.0625 6.1875 -15.0625 6.1875 -17 6 C-16.01 5.34 -15.02 4.68 -14 4 C-13.34 3.34 -12.68 2.68 -12 2 C-12 1.67 -12 1.34 -12 1 C-7.93631321 0.22596442 -4.13574827 -0.0984702 0 0 Z " fill="#7C7C7C" transform="translate(702,803)"/>
<path d="M0 0 C1.0209375 0.5259375 1.0209375 0.5259375 2.0625 1.0625 C5.7087789 2.22620603 8.28489978 1.72845102 12 1 C11.67 2.32 11.34 3.64 11 5 C9.34385343 5.38218767 7.67542976 5.71395102 6 6 C5.67 5.67 5.34 5.34 5 5 C4.67 5.66 4.34 6.32 4 7 C3.01 7 2.02 7 1 7 C1.33 5.68 1.66 4.36 2 3 C1.34 2.67 0.68 2.34 0 2 C0 1.34 0 0.68 0 0 Z " fill="#767676" transform="translate(826,669)"/>
<path d="M0 0 C2.90444473 1.45222237 3.40562413 3.7220226 4.46875 6.65625 C5.34758618 10.53346846 4.74204506 14.13778955 4 18 C3.34 18 2.68 18 2 18 C1.34 12.06 0.68 6.12 0 0 Z " fill="#878787" transform="translate(769,473)"/>
<path d="M0 0 C0.99 0 1.98 0 3 0 C3 0.66 3 1.32 3 2 C6.465 1.505 6.465 1.505 10 1 C10.33 1.99 10.66 2.98 11 4 C8.36 4 5.72 4 3 4 C3 4.66 3 5.32 3 6 C2.01 6 1.02 6 0 6 C-0.33 6.99 -0.66 7.98 -1 9 C-1 7.68 -1 6.36 -1 5 C-0.01 5 0.98 5 2 5 C2 4.34 2 3.68 2 3 C1.01 3.33 0.02 3.66 -1 4 C-1.33 3.34 -1.66 2.68 -2 2 C-1.34 2 -0.68 2 0 2 C0 1.34 0 0.68 0 0 Z " fill="#AAAAAA" transform="translate(467,786)"/>
<path d="M0 0 C-1.32 2.31 -2.64 4.62 -4 7 C-6.96175123 6.38722388 -8.38058783 5.74627478 -11 4 C-7.535 3.505 -7.535 3.505 -4 3 C-4 2.34 -4 1.68 -4 1 C-4.66 0.67 -5.32 0.34 -6 0 C-3.50907189 -1.24546405 -2.58919267 -0.7767578 0 0 Z " fill="#787878" transform="translate(663,769)"/>
<path d="M0 0 C0.66 0.33 1.32 0.66 2 1 C1.43410156 1.33773437 0.86820312 1.67546875 0.28515625 2.0234375 C-0.44832031 2.46945313 -1.18179687 2.91546875 -1.9375 3.375 C-3.03384766 4.03628906 -3.03384766 4.03628906 -4.15234375 4.7109375 C-6.13772272 5.8773984 -6.13772272 5.8773984 -7 8 C-9.64 8 -12.28 8 -15 8 C-11.96943208 5.55831021 -8.90981404 3.86972611 -5.375 2.25 C-4.41335938 1.80140625 -3.45171875 1.3528125 -2.4609375 0.890625 C-1.64882813 0.59671875 -0.83671875 0.3028125 0 0 Z " fill="#606060" transform="translate(449,236)"/>
<path d="M0 0 C3.63 0.66 7.26 1.32 11 2 C10.01 2.33 9.02 2.66 8 3 C7.67 3.99 7.34 4.98 7 6 C5.02 6.33 3.04 6.66 1 7 C1.99 6.01 2.98 5.02 4 4 C1.525 3.01 1.525 3.01 -1 2 C-0.67 1.34 -0.34 0.68 0 0 Z " fill="#6F6F6F" transform="translate(641,797)"/>
<path d="M0 0 C0.99 0 1.98 0 3 0 C1.4169423 4.2742558 -1.50568404 6.26531794 -5 9 C-5.99 8.01 -6.98 7.02 -8 6 C-7.67 5.01 -7.34 4.02 -7 3 C-6.34 3.33 -5.68 3.66 -5 4 C-2.91666667 3.83333333 -2.91666667 3.83333333 -1 3 C-0.67 2.01 -0.34 1.02 0 0 Z " fill="#0B0B0B" transform="translate(838,670)"/>
<path d="M0 0 C0.33 0 0.66 0 1 0 C1.74984705 4.00091404 2.1195296 7.76749517 2.09765625 11.8359375 C2.09443359 12.89941406 2.09121094 13.96289062 2.08789062 15.05859375 C2.07951172 16.15300781 2.07113281 17.24742187 2.0625 18.375 C2.05798828 19.49261719 2.05347656 20.61023438 2.04882812 21.76171875 C2.03709244 24.50786804 2.02067363 27.25390586 2 30 C1.67 30 1.34 30 1 30 C0.67 20.1 0.34 10.2 0 0 Z " fill="#858585" transform="translate(739,464)"/>
<path d="M0 0 C-1 2 -1 2 -4 4 C-4 4.33 -4 4.66 -4 5 C-6.31 5 -8.62 5 -11 5 C-10 2 -10 2 -7.75 0.8125 C-5.00208853 0.00061706 -2.84552111 -0.16260121 0 0 Z " fill="#5F5F5F" transform="translate(672,805)"/>
<path d="M0 0 C0.33 1.32 0.66 2.64 1 4 C-1.64 4.33 -4.28 4.66 -7 5 C-7 4.34 -7 3.68 -7 3 C-8.65 2.67 -10.3 2.34 -12 2 C-9.23157127 1.07719042 -7.71056559 0.91629327 -4.875 1 C-3.59625 1 -2.3175 1 -1 1 C-0.67 0.67 -0.34 0.34 0 0 Z " fill="#414141" transform="translate(650,774)"/>
<path d="M0 0 C0.66 0.33 1.32 0.66 2 1 C1.67 3.31 1.34 5.62 1 8 C-0.98 8.33 -2.96 8.66 -5 9 C-3.92598892 6.08482708 -3.22189824 4.22189824 -1 2 C-0.67 1.34 -0.34 0.68 0 0 Z " fill="#060606" transform="translate(821,635)"/>
<path d="M0 0 C-2.0206094 4.0412188 -4.45395373 6.29380679 -8 9 C-7.745504 7.51793505 -7.47088238 6.03931385 -7.1875 4.5625 C-7.03667969 3.73878906 -6.88585937 2.91507813 -6.73046875 2.06640625 C-6.48941406 1.38449219 -6.24835937 0.70257812 -6 0 C-3 -1 -3 -1 0 0 Z " fill="#7A7A7A" transform="translate(823,634)"/>
<path d="M0 0 C-0.33 0.66 -0.66 1.32 -1 2 C-1.99 2 -2.98 2 -4 2 C-4 2.66 -4 3.32 -4 4 C-8.625 6.125 -8.625 6.125 -12 5 C-11.34 5 -10.68 5 -10 5 C-9.773125 4.38125 -9.54625 3.7625 -9.3125 3.125 C-6.9604125 -0.68314167 -4.12119017 -1.37373006 0 0 Z " fill="#464646" transform="translate(708,796)"/>
<path d="M0 0 C0 0.66 0 1.32 0 2 C-1.32 1.67 -2.64 1.34 -4 1 C-4.33 2.65 -4.66 4.3 -5 6 C-6.32 6.33 -7.64 6.66 -9 7 C-9 6.34 -9 5.68 -9 5 C-9.66 4.67 -10.32 4.34 -11 4 C-10.34 4 -9.68 4 -9 4 C-8.67 3.34 -8.34 2.68 -8 2 C-8 2.66 -8 3.32 -8 4 C-7.01 4 -6.02 4 -5 4 C-5.33 2.68 -5.66 1.36 -6 0 C-3.50907189 -1.24546405 -2.58919267 -0.7767578 0 0 Z " fill="#B0B0B0" transform="translate(476,793)"/>
<path d="M0 0 C0.66 0.99 1.32 1.98 2 3 C0.7632378 6.7102866 -1.00020293 7.60016234 -4 10 C-4.33 10.99 -4.66 11.98 -5 13 C-5.66 13 -6.32 13 -7 13 C-5.35821735 8.22390502 -2.73453298 4.20617096 0 0 Z " fill="#5E5E5E" transform="translate(770,657)"/>
<path d="M0 0 C0.66 0.33 1.32 0.66 2 1 C-0.93828597 3.50298434 -3.17902761 4.46930939 -7 5 C-7 5.66 -7 6.32 -7 7 C-8.65 7.33 -10.3 7.66 -12 8 C-12 7.34 -12 6.68 -12 6 C-8.77815727 2.90703098 -5.24053889 2.12014235 -1 1 C-0.67 0.67 -0.34 0.34 0 0 Z " fill="#7D7D7D" transform="translate(834,678)"/>
<path d="M0 0 C1.32 1.32 2.64 2.64 4 4 C0.12315913 5.19287411 -2.91621923 6 -7 6 C-6.67 5.01 -6.34 4.02 -6 3 C-4.35 3.33 -2.7 3.66 -1 4 C-0.67 2.68 -0.34 1.36 0 0 Z " fill="#535353" transform="translate(455,816)"/>
<path d="M0 0 C0.66 0.33 1.32 0.66 2 1 C0.375 3.9375 0.375 3.9375 -2 7 C-5.25 7.875 -5.25 7.875 -8 8 C-7.34 7.01 -6.68 6.02 -6 5 C-5.34 5 -4.68 5 -4 5 C-4 4.34 -4 3.68 -4 3 C-2 1.375 -2 1.375 0 0 Z " fill="#666666" transform="translate(402,264)"/>
<path d="M0 0 C0.90105469 0.19464844 1.80210937 0.38929688 2.73046875 0.58984375 C3.41753906 0.74582031 4.10460937 0.90179687 4.8125 1.0625 C4.8125 1.3925 4.8125 1.7225 4.8125 2.0625 C0.5225 2.0625 -3.7675 2.0625 -8.1875 2.0625 C-8.1875 1.4025 -8.1875 0.7425 -8.1875 0.0625 C-4.80475734 -1.06508089 -3.41971777 -0.75500262 0 0 Z " fill="#646464" transform="translate(658.1875,800.9375)"/>
<path d="M0 0 C4.29 0 8.58 0 13 0 C13 0.99 13 1.98 13 3 C6.07 2.505 6.07 2.505 -1 2 C-0.67 1.34 -0.34 0.68 0 0 Z " fill="#ACACAC" transform="translate(641,778)"/>
<path d="M0 0 C2.97 0 5.94 0 9 0 C8.67 0.99 8.34 1.98 8 3 C5.36 2.67 2.72 2.34 0 2 C0 1.34 0 0.68 0 0 Z " fill="#9B9B9B" transform="translate(680,803)"/>
<path d="M0 0 C1.125 3.75 1.125 3.75 0 6 C0.66 6 1.32 6 2 6 C0.62308038 8.75383923 -1.36720042 9.51483101 -4 11 C-3.52269162 9.5410574 -3.04308958 8.08286504 -2.5625 6.625 C-2.29566406 5.81289063 -2.02882813 5.00078125 -1.75390625 4.1640625 C-1 2 -1 2 0 0 Z " fill="#525252" transform="translate(778,640)"/>
<path d="M0 0 C0.8723412 2.99480917 1.10829766 5.63575911 1.0625 8.75 C1.05347656 9.54921875 1.04445313 10.3484375 1.03515625 11.171875 C1.01775391 12.07679688 1.01775391 12.07679688 1 13 C0.01 12.67 -0.98 12.34 -2 12 C-1.85831863 10.56208484 -1.71148957 9.1246763 -1.5625 7.6875 C-1.48128906 6.88699219 -1.40007812 6.08648437 -1.31640625 5.26171875 C-1 3 -1 3 0 0 Z " fill="#626262" transform="translate(269,491)"/>
<path d="M0 0 C0.33 1.32 0.66 2.64 1 4 C1.66 4 2.32 4 3 4 C2.34 5.32 1.68 6.64 1 8 C0.01 8 -0.98 8 -2 8 C-1.47731534 5.23723823 -0.89130413 2.6739124 0 0 Z " fill="#565656" transform="translate(781,632)"/>
<path d="M0 0 C0.33 0 0.66 0 1 0 C0.67 3.63 0.34 7.26 0 11 C-1.88343932 7.23312136 -2.22057835 5.97041037 -2 2 C-1.34 2 -0.68 2 0 2 C0 1.34 0 0.68 0 0 Z " fill="#5F5F5F" transform="translate(788,510)"/>
<path d="M0 0 C1.47118907 3.82509158 0.45442741 6.28312995 -1 10 C-1.33 10.66 -1.66 11.32 -2 12 C-2.66 12 -3.32 12 -4 12 C-3.52309796 10.37433394 -3.04340334 8.74948689 -2.5625 7.125 C-2.29566406 6.22007812 -2.02882813 5.31515625 -1.75390625 4.3828125 C-1 2 -1 2 0 0 Z " fill="#767676" transform="translate(292,424)"/>
<path d="M0 0 C-0.33 1.65 -0.66 3.3 -1 5 C-2.32 5.33 -3.64 5.66 -5 6 C-5 3 -5 3 -3.625 1.3125 C-2 0 -2 0 0 0 Z " fill="#383838" transform="translate(426,249)"/>
<path d="M0 0 C2.31 0.33 4.62 0.66 7 1 C7 1.66 7 2.32 7 3 C5.02 3.33 3.04 3.66 1 4 C0.67 2.68 0.34 1.36 0 0 Z " fill="#E4E4E4" transform="translate(651,802)"/>
<path d="M0 0 C1.98 0.495 1.98 0.495 4 1 C3.01 1 2.02 1 1 1 C1 1.66 1 2.32 1 3 C1.66 3 2.32 3 3 3 C3 3.99 3 4.98 3 6 C1.68 5.67 0.36 5.34 -1 5 C-0.67 3.35 -0.34 1.7 0 0 Z " fill="#101010" transform="translate(649,800)"/>
<path d="M0 0 C2.51083114 1.25541557 2.87125446 2.50063488 4 5 C2.35 5 0.7 5 -1 5 C-1.33 3.68 -1.66 2.36 -2 1 C-1.34 0.67 -0.68 0.34 0 0 Z " fill="#BBBBBB" transform="translate(460,786)"/>
<path d="M0 0 C0.99 0.33 1.98 0.66 3 1 C3 1.66 3 2.32 3 3 C3.99 3.33 4.98 3.66 6 4 C2.25 5.125 2.25 5.125 0 4 C0 3.34 0 2.68 0 2 C-0.66 1.67 -1.32 1.34 -2 1 C-1.34 0.67 -0.68 0.34 0 0 Z " fill="#171717" transform="translate(470,784)"/>
<path d="M0 0 C1.5 1.1875 1.5 1.1875 3 3 C3.1875 5.6875 3.1875 5.6875 3 8 C1.5 6.8125 1.5 6.8125 0 5 C-0.1875 2.3125 -0.1875 2.3125 0 0 Z " fill="#969696" transform="translate(761,454)"/>
<path d="M0 0 C1.9375 0.375 1.9375 0.375 4 1 C4.33 1.66 4.66 2.32 5 3 C3.35 2.67 1.7 2.34 0 2 C0 1.34 0 0.68 0 0 Z " fill="#9A9A9A" transform="translate(635,797)"/>
<path d="M0 0 C0.66 0 1.32 0 2 0 C1.67 1.65 1.34 3.3 1 5 C0.67 5 0.34 5 0 5 C0 3.35 0 1.7 0 0 Z " fill="#C5C5C5" transform="translate(785,544)"/>
<path d="M0 0 C0.99 0.33 1.98 0.66 3 1 C3 1.66 3 2.32 3 3 C1.68 2.34 0.36 1.68 -1 1 C-0.67 0.67 -0.34 0.34 0 0 Z " fill="#ABABAB" transform="translate(597,793)"/>
<path d="M0 0 C1.32 0 2.64 0 4 0 C4 0.66 4 1.32 4 2 C2.68 2 1.36 2 0 2 C0 1.34 0 0.68 0 0 Z " fill="#777777" transform="translate(666,774)"/>
<path d="M0 0 C0.66 0 1.32 0 2 0 C1.67 1.32 1.34 2.64 1 4 C0.34 3.34 -0.32 2.68 -1 2 C-0.67 1.34 -0.34 0.68 0 0 Z " fill="#BBBBBB" transform="translate(761,658)"/>
<path d="M0 0 C0.66 0 1.32 0 2 0 C2 0.99 2 1.98 2 3 C1.01 3 0.02 3 -1 3 C-0.67 2.01 -0.34 1.02 0 0 Z " fill="#999999" transform="translate(761,574)"/>
<path d="M0 0 C0.66 0.99 1.32 1.98 2 3 C1.01 3 0.02 3 -1 3 C-0.67 2.01 -0.34 1.02 0 0 Z " fill="#959595" transform="translate(734,692)"/>
<path d="M0 0 C0.66 0 1.32 0 2 0 C2 0.99 2 1.98 2 3 C1.01 2.67 0.02 2.34 -1 2 C-0.67 1.34 -0.34 0.68 0 0 Z " fill="#A6A6A6" transform="translate(785,583)"/>
<path d="M0 0 C0.66 0.66 1.32 1.32 2 2 C1.01 2.66 0.02 3.32 -1 4 C-0.67 2.68 -0.34 1.36 0 0 Z " fill="#B0B0B0" transform="translate(778,505)"/>
<path d="M0 0 C0.66 0 1.32 0 2 0 C2 0.99 2 1.98 2 3 C1.34 3 0.68 3 0 3 C0 2.01 0 1.02 0 0 Z " fill="#B9B9B9" transform="translate(783,592)"/>
<path d="M0 0 C0.66 0 1.32 0 2 0 C2 0.99 2 1.98 2 3 C1.34 3 0.68 3 0 3 C0 2.01 0 1.02 0 0 Z " fill="#BCBCBC" transform="translate(784,533)"/>
<path d="M0 0 C0.33 0 0.66 0 1 0 C1 1.65 1 3.3 1 5 C0.67 5 0.34 5 0 5 C0 3.35 0 1.7 0 0 Z " fill="#9D9D9D" transform="translate(738,459)"/>
<path d="" fill="#E9E9E9" transform="translate(0,0)"/>
<path d="" fill="#EDEDED" transform="translate(0,0)"/>
<path d="" fill="#EDEDED" transform="translate(0,0)"/>
<path d="" fill="#EEEEEE" transform="translate(0,0)"/>
<path d="" fill="#EEEEEE" transform="translate(0,0)"/>
<path d="" fill="#E6E6E6" transform="translate(0,0)"/>
</svg>
